<?xml version="1.0" encoding="UTF-8" standalone="no"?>
<!-- Created with Inkscape (http://www.inkscape.org/) -->

<svg
   width="1200"
   height="1200"
   viewBox="0 0 317.49999 317.5"
   version="1.1"
   id="svg1"
   inkscape:version="1.3 (0e150ed6c4, 2023-07-21)"
   sodipodi:docname="dragon_icon.svg"
   inkscape:export-filename="icon.png"
   inkscape:export-xdpi="96"
   inkscape:export-ydpi="96"
   xmlns:inkscape="http://www.inkscape.org/namespaces/inkscape"
   xmlns:sodipodi="http://sodipodi.sourceforge.net/DTD/sodipodi-0.dtd"
   xmlns="http://www.w3.org/2000/svg"
   xmlns:svg="http://www.w3.org/2000/svg">
  <sodipodi:namedview
     id="namedview1"
     pagecolor="#505050"
     bordercolor="#eeeeee"
     borderopacity="1"
     inkscape:showpageshadow="0"
     inkscape:pageopacity="0"
     inkscape:pagecheckerboard="0"
     inkscape:deskcolor="#505050"
     inkscape:document-units="px"
     inkscape:zoom="0.76702439"
     inkscape:cx="541.70376"
     inkscape:cy="664.25528"
     inkscape:window-width="1920"
     inkscape:window-height="1057"
     inkscape:window-x="-8"
     inkscape:window-y="-8"
     inkscape:window-maximized="1"
     inkscape:current-layer="g200"
     inkscape:export-bgcolor="#ffffff00" />
  <defs
     id="defs1">
    <linearGradient
       id="swatch1322"
       inkscape:swatch="solid">
      <stop
         style="stop-color:#010101;stop-opacity:1;"
         offset="0"
         id="stop1322" />
    </linearGradient>
    <clipPath
       clipPathUnits="userSpaceOnUse"
       id="clipPath52">
      <path
         id="path52"
         style="stroke-width:0.1;stroke-linecap:square;paint-order:markers fill stroke;stop-color:#000000"
         d="m -880.82767,-187.29769 h 1640.84 v 73.28155 h -1640.84 z" />
    </clipPath>
    <linearGradient
       id="swatch32"
       inkscape:swatch="solid">
      <stop
         style="stop-color:#000000;stop-opacity:1;"
         offset="0"
         id="stop32" />
    </linearGradient>
    <linearGradient
       id="swatch26"
       inkscape:swatch="solid">
      <stop
         style="stop-color:#000000;stop-opacity:1;"
         offset="0"
         id="stop26" />
    </linearGradient>
    <linearGradient
       id="swatch17"
       inkscape:swatch="solid">
      <stop
         style="stop-color:#000000;stop-opacity:1;"
         offset="0"
         id="stop17" />
    </linearGradient>
    <linearGradient
       id="swatch6">
      <stop
         style="stop-color:#000000;stop-opacity:1;"
         offset="0"
         id="stop6" />
    </linearGradient>
    <linearGradient
       id="swatch2"
       inkscape:swatch="solid">
      <stop
         style="stop-color:#000000;stop-opacity:1;"
         offset="0"
         id="stop2" />
    </linearGradient>
    <clipPath
       clipPathUnits="userSpaceOnUse"
       id="clipPath1321">
      <g
         inkscape:label="Clip"
         id="use1322"
         style="fill:#ffffff">
        <path
           style="opacity:0.872263;fill:#ffffff;fill-opacity:1;fill-rule:nonzero;stroke:#ffffff;stroke-width:0.285001;stroke-linecap:round;stroke-linejoin:miter;stroke-dasharray:none;stroke-opacity:1;paint-order:markers fill stroke"
           d="m 62.686125,172.93565 c 101.956415,3.41481 34.879827,10.73226 34.879827,10.73226 l -29.757615,44.88033 98.053783,-50.24646 -62.1983,-75.3697 c 0,0 31.22111,-39.026382 32.19677,-38.782468 0.97566,0.243917 39.27029,107.078638 39.27029,107.078638 z"
           id="path1322" />
      </g>
    </clipPath>
    <clipPath
       clipPathUnits="userSpaceOnUse"
       id="clipPath1">
      <g
         id="g2">
        <g
           inkscape:label="Clip"
           id="use1"
           sodipodi:insensitive="true"
           style="fill:#010101;fill-opacity:1;fill-rule:nonzero"
           clip-path="url(#clipPath1)">
          <g
             id="g6"
             style="fill:#010101;fill-opacity:1;fill-rule:nonzero">
            <path
               id="path2"
               style="fill:#010101;fill-opacity:1;fill-rule:nonzero;stroke:#000000;stroke-width:0.246142;stroke-linecap:round;stroke-linejoin:miter;stroke-dasharray:none;stroke-opacity:1;paint-order:markers fill stroke"
               d="m 154.72457,130.08024 c -24.87628,-0.76411 -50.2354,13.23663 -66.947061,33.05766 -11.099322,13.16445 -18.952941,30.39322 -16.888461,50.81189 2.06448,20.41867 -19.211671,50.95338 -30.996052,15.07932 13.368477,21.08042 42.89081,4.45862 43.592396,-13.04685 0.701584,-17.50545 8.042121,-32.14754 19.501108,-42.88504 17.85503,-16.73083 44.25021,-24.20468 68.65437,-25.98242 7.08733,-0.51628 -3.60795,-0.7934 20.82131,4.57652 -8.97075,-11.9967 -23.2486,-21.16603 -37.73761,-21.61108 z"
               sodipodi:nodetypes="aascsaaca" />
            <path
               style="fill:#010101;fill-opacity:1;fill-rule:nonzero;stroke:#000000;stroke-width:0.139553;stroke-linecap:round;stroke-linejoin:miter;stroke-dasharray:none;stroke-opacity:1;paint-order:markers fill stroke"
               id="path3"
               sodipodi:type="arc"
               sodipodi:cx="149.10304"
               sodipodi:cy="196.74445"
               sodipodi:rx="11.71997"
               sodipodi:ry="12.884685"
               sodipodi:start="1.6801118"
               sodipodi:end="4.4843326"
               sodipodi:arc-type="slice"
               d="m 147.82442,209.55222 a 11.71997,12.884685 0 0 1 -10.4207,-12.04325 11.71997,12.884685 0 0 1 9.04962,-13.31559 l 2.6497,12.55107 z"
               transform="matrix(0.96983414,-0.24376576,0.25163758,0.96782154,0,0)" />
            <path
               style="fill:#010101;fill-opacity:1;fill-rule:nonzero;stroke:#000000;stroke-width:0.246962;stroke-linecap:round;stroke-linejoin:miter;stroke-dasharray:none;stroke-opacity:1;paint-order:markers fill stroke"
               d="m 154.15539,144.81095 c 0,0 -44.72642,-75.623233 -60.155761,-106.641253 C 75.860003,1.7031009 6.4917415,172.97164 6.4917415,172.97164 20.507795,157.28917 22.311739,145.50246 37.754983,137.27821 c 16.532708,-8.33786 -1.598247,23.05762 -1.598247,23.05762 0,0 9.486196,-12.09473 33.420261,-25.63493 10.574019,-5.98203 8.566255,8.83157 6.577803,17.77879 10.213995,-12.52588 54.85869,-18.35033 60.12145,-14.2138"
               id="path4"
               sodipodi:nodetypes="cscccscc" />
            <path
               style="fill:#010101;fill-opacity:1;fill-rule:nonzero;stroke:#000000;stroke-width:0.20225;stroke-linecap:round;stroke-linejoin:miter;stroke-dasharray:none;stroke-opacity:1;paint-order:markers fill stroke"
               d="m 187.08747,155.69896 c 0,0 0.44477,-11.50903 1.70579,-15.89386 1.26102,-4.38483 0.3649,-15.19671 0.3649,-15.19671 4.70511,3.36456 8.72649,18.45684 9.64599,15.37981 1.58518,-5.30462 1.97683,-3.5134 1.65094,-12.97026 7.22269,12.07908 5.38393,22.35386 1.28805,31.60515 -2.15937,5.71551 -2.71398,2.59734 -3.32972,6.48875 -0.74578,4.71335 -1.03253,2.47841 -2.29917,10.74252 l -3.3016,3.28202 -3.95498,-0.1804 -1.49742,-10.56294 -1.30665,-3.89497"
               id="path5"
               sodipodi:nodetypes="czcsccsccccc" />
            <path
               style="fill:#010101;fill-opacity:1;fill-rule:nonzero;stroke:#000000;stroke-width:0.18319;stroke-linecap:round;stroke-linejoin:miter;stroke-dasharray:none;stroke-opacity:1;paint-order:markers fill stroke"
               id="path6"
               sodipodi:type="arc"
               sodipodi:cx="-197.63286"
               sodipodi:cy="-9.821373"
               sodipodi:rx="25.05298"
               sodipodi:ry="40.017506"
               sodipodi:start="1.6014399"
               sodipodi:end="5.1590581"
               sodipodi:arc-type="slice"
               d="m -198.40045,30.177345 a 25.05298,40.017506 0 0 1 -22.72951,-26.1160375 25.05298,40.017506 0 0 1 6.61892,-43.4558295 25.05298,40.017506 0 0 1 27.70016,-6.518276 l -10.82198,36.091425 z"
               transform="matrix(-0.63384579,-0.77345944,0.72084569,-0.69309558,0,0)" />
          </g>
        </g>
      </g>
    </clipPath>
  </defs>
  <g
     inkscape:groupmode="layer"
     id="layer3"
     inkscape:label="Layer 2">
    <path
       id="path39-3-3"
       style="fill:#808080;fill-opacity:1;fill-rule:nonzero;stroke:#808080;stroke-width:0.251483;stroke-linecap:round;stroke-linejoin:miter;stroke-dasharray:none;stroke-opacity:1;paint-order:markers fill stroke"
       d="m 270.30852,76.66493 c -29.64239,-1.108051 -90.20741,87.68974 -90.20741,87.68974 l 18.32498,1.30431 c 6.15134,-1.79776 59.88159,0.88652 46.14344,58.01868 16.33694,-5.6137 9.82498,-34.62279 15.07246,-32.56235 2.78821,1.09483 4.84366,3.37713 6.35362,6.43992 0.0104,-0.006 0.0208,-0.0117 0.0315,-0.016 0.009,-0.016 0.0176,-0.032 0.0279,-0.0481 0.0965,-0.14769 0.23028,-0.18538 0.37517,-0.2465 0.17776,-0.0619 0.36224,-0.0866 0.5488,-0.0997 0.0278,-9.7e-4 0.0549,-0.003 0.0811,-0.003 0.0213,-2e-5 0.0323,0.009 0.0522,0.0103 0.0511,-0.0271 0.11929,-0.0462 0.20515,-0.0522 0.0176,-0.001 0.0348,-0.002 0.0517,-0.002 0.11813,-0.002 0.22057,0.0198 0.33641,0.0636 0.13196,0.0544 0.23305,0.15681 0.32815,0.25994 0.0464,0.0503 0.0829,0.10786 0.11937,0.16536 0.009,0.0146 0.01,0.0267 0.017,0.0408 0.0483,0.0361 0.0914,0.0781 0.13333,0.12143 0.11599,0.1196 0.13679,0.23916 0.10232,0.32195 -10e-4,0.008 0.0141,0.0187 0.0119,0.0258 0.12941,0.22321 0.20824,0.47191 0.20619,0.73484 -0.088,0.75807 -0.36219,1.47481 -0.5674,2.20658 -0.10965,0.35026 -0.16907,0.55785 -0.29663,0.89762 -0.0217,0.0582 -0.0418,0.11767 -0.0636,0.17622 5.85422,21.08503 -4.4142,63.22766 -4.4142,63.22766 0,0 13.58584,-52.30388 25.84958,-53.23189 9.96159,-0.75379 7.53932,12.5966 4.39974,30.38264 15.45652,-42.84812 42.26467,-106.67001 -15.11794,-162.396809 -2.30317,-2.236724 -5.03818,-3.313897 -8.10442,-3.428731 z m 23.22288,165.82554 c -7.57531,21.00002 -12.46261,37.04163 -3.30006,44.46964 -1.90044,-14.79449 0.90295,-30.88979 3.30006,-44.46964 z" />
    <g
       inkscape:label="Layer 1"
       inkscape:groupmode="layer"
       id="layer1">
      <g
         id="g200"
         style="fill:#010101;fill-opacity:1;fill-rule:nonzero">
        <path
           id="path39-3"
           style="fill:#808080;fill-opacity:1;fill-rule:nonzero;stroke:#808080;stroke-width:0.251483;stroke-linecap:round;stroke-linejoin:miter;stroke-dasharray:none;stroke-opacity:1;paint-order:markers fill stroke"
           d="m 270.13234,76.831485 c -29.64239,-1.108051 -90.20741,87.689735 -90.20741,87.689735 l 18.32498,1.30431 c 6.15134,-1.79776 59.88159,0.88652 46.14344,58.01868 16.33694,-5.6137 9.825,-34.62284 15.07246,-32.56235 2.29935,0.90287 4.11988,2.57292 5.54046,4.82509 1.42058,2.25217 -2.13218,7.03778 3.1408,8.31785 4.61585,7.53225 0.93571,25.61771 -0.24219,34.80772 -0.51674,3.94855 -1.11786,7.73905 -1.72449,11.18649 -0.60662,3.44743 -1.21874,6.55179 -1.75747,9.12803 -0.53873,2.57624 -1.00407,4.62437 -1.31713,5.95934 0,0 13.58584,-52.30388 25.84958,-53.23189 9.96159,-0.75379 7.53932,12.5966 4.39974,30.38264 15.45652,-42.84812 42.26467,-106.67001 -15.11794,-162.396804 -2.30317,-2.236724 -5.03818,-3.313897 -8.10442,-3.428731 z m 23.22288,165.825535 c -7.57531,21.00002 -12.46261,37.04163 -3.30006,44.46964 -1.90044,-14.79449 0.90295,-30.88979 3.30006,-44.46964 z"
           sodipodi:nodetypes="ccccsssssscscsccccc" />
        <path
           style="display:none;opacity:0.872263;fill:#616161;fill-opacity:1;stroke:#000000;stroke-width:0.285001;stroke-linecap:round;paint-order:markers fill stroke"
           d="m 145.37327,133.17753 c 1.31361,-3.86478 -1.21256,-8.31555 0,-12.19575 1.08455,-3.47055 3.2522,-6.50439 4.8783,-9.75659 0.65044,-1.30088 1.04274,-2.76692 1.95132,-3.90264 1.72389,-2.15487 3.84074,-3.96657 5.85396,-5.85396 3.02338,-2.834422 6.49589,-5.93101 10.24442,-7.805274 2.54005,-1.270023 5.26523,-2.144784 7.80528,-3.414807 0.41137,-0.205687 0.52668,-0.875888 0.97566,-0.975662 1.85949,-0.413221 3.99446,0.413221 5.85395,0 0.7099,-0.157755 1.26143,-0.745694 1.95132,-0.975659 1.16528,-0.388427 2.68488,0.202959 3.90264,0 2.67959,-0.446598 3.53593,-1.221256 4.8783,1.46349 0.61798,1.235956 0,8.304908 0,9.756595 0,2.688397 -0.49298,5.663877 0,8.293107 0.37067,1.97692 1.20334,3.85948 1.46349,5.85396 0.23135,1.77368 -0.41744,3.6268 0,5.36612 0.57802,2.40841 2.08574,4.50006 2.92698,6.82962 1.27507,3.53097 2.15215,7.19682 3.4148,10.73225 1.57306,4.40456 1.61947,1.4237 2.43915,6.34179 0.13367,0.80199 0,1.6261 0,2.43915 0.16261,1.13827 0.27593,2.28468 0.48783,3.41481 0.27629,1.47351 0.65044,2.92698 0.97566,4.39047 0.16261,1.6261 0.21917,3.26632 0.48783,4.8783 0.22045,1.32267 0.77177,2.57731 0.97566,3.90263 0.24392,1.58545 -0.19513,2.82942 0,4.39047 0.0832,0.66528 0.40467,1.28604 0.48783,1.95132 0.22186,1.7749 0,3.57742 0,5.36613 0,5.20351 0,10.40703 0,15.61055 0,2.16152 -1.14581,8.13993 -2.43915,9.7566 -0.43097,0.53871 -1.10854,0.87191 -1.46349,1.46349 -0.16732,0.27887 0.14545,0.68477 0,0.97565 -0.5688,1.13761 -2.53715,4.00065 -3.41481,4.8783 -0.2571,0.25711 -0.71855,0.23072 -0.97565,0.48783 -0.89805,0.89805 -1.67714,1.91096 -2.43915,2.92698 -0.57169,0.76225 -1.94195,3.41481 -1.95132,3.41481 -0.20154,0 0.19137,-2.38939 0.48783,-4.39047 0.62687,-4.23141 1.59608,-8.42075 1.95132,-12.68357 0.3851,-4.62119 0,-9.52599 0,-14.14707 0,-2.11392 0,-4.22785 0,-6.34178 0,-0.65044 0,-1.30088 0,-1.95132 0,-0.32522 0,-1.30088 0,-0.97566 0,3.18306 -0.18768,3.6777 -0.97566,6.82962 -0.2399,0.95958 -0.13276,2.00379 -0.48783,2.92698 -1.71405,4.45653 -5.54417,8.04265 -8.29311,11.70791 -7.52466,10.03288 3.26906,-2.5077 -5.85396,7.80528 -2.59474,2.93319 -5.1855,5.87007 -7.80527,8.78093 -0.30768,0.34186 -0.56429,1.18135 -0.97566,0.97566 -0.43633,-0.21816 0,-0.97566 0,-1.46349 0,-3.54363 -0.1869,-1.60337 1.46349,-6.82962 1.33261,-4.21994 2.4828,-8.72964 2.92698,-13.1714 0.0809,-0.80901 -0.15946,-1.64189 0,-2.43915 0.17173,-0.85868 0.8317,-1.57538 0.97566,-2.43915 0.37426,-2.24556 0,-4.55307 0,-6.82961 0,-2.27654 0,-4.55308 0,-6.82962 0,-0.16261 0,0.32522 0,0.48783 0,0.97566 0.28035,1.99247 0,2.92698 -0.47065,1.56881 -1.53298,3.03121 -2.43915,4.39047 -0.65044,0.97565 -1.34803,1.92148 -1.95132,2.92698 -0.37415,0.62358 -0.46144,1.4371 -0.97566,1.95131 -4.39842,4.39842 -2.40461,0.8278 -5.85396,3.41481 -0.801,0.60075 1.93654,0.97566 -0.97566,0.97566 -0.16261,0 -0.11498,-0.37285 0,-0.48783 0.11498,-0.11498 0.43074,0.15226 0.48783,0 0.95711,-2.55228 1.77804,-5.16082 2.43915,-7.80528 0.31796,-1.27186 0.23072,-2.61709 0.48783,-3.90263 0.23217,-1.16083 0.78104,-2.2471 0.97566,-3.41481 0.61152,-3.66913 0,-8.91214 0,-12.68358 0,-3.05823 0.57577,-8.34122 0,-11.22008 -0.0451,-0.2255 -0.40242,-0.27431 -0.48783,-0.48783 -0.8688,-2.17199 -1.493,-5.6248 -3.90264,-6.82962 -0.58177,-0.29088 -1.3259,-0.17869 -1.95132,0 -1.74808,0.49945 -3.22322,1.68684 -4.8783,2.43915 -2.60952,1.18615 -5.84034,2.18843 -8.2931,3.41481"
           id="path26" />
        <path
           style="fill:#010101;fill-opacity:1;fill-rule:nonzero;stroke:#000000;stroke-width:0.365476;stroke-linecap:round;stroke-linejoin:miter;stroke-dasharray:none;stroke-opacity:1;paint-order:markers fill stroke"
           d="m 224.38187,166.40981 c 0,0 -66.18992,-111.913636 -89.02356,-157.8167166 C 108.51377,-45.373246 5.8567686,208.08437 5.8567686,208.08437 26.598906,184.87612 29.268535,167.43316 52.122748,155.26222 c 24.466494,-12.33907 -2.36522,34.1226 -2.36522,34.1226 0,0 14.038471,-17.89879 49.458117,-37.93672 15.648325,-8.85271 12.677065,13.0697 9.734395,26.31055 15.11552,-18.53685 81.1845,-27.15636 88.97277,-21.03477"
           id="path39"
           sodipodi:nodetypes="cscccscc" />
        <path
           id="path41"
           style="fill:#010101;fill-opacity:1;fill-rule:nonzero;stroke:#000000;stroke-width:0.270674;stroke-linecap:round;stroke-linejoin:miter;stroke-dasharray:none;stroke-opacity:1;paint-order:markers fill stroke"
           d="m 214.54496,148.24826 -43.38894,40.14869 -50.45753,44.48501 c 1.12193,17.75531 8.73542,-0.50343 27.52259,-3.13498 18.78705,-2.63134 42.11567,-11.51447 58.70235,-28.33319 17.67955,-17.9269 16.65621,-40.97917 7.62153,-53.16553 z"
           sodipodi:nodetypes="ccccsc" />
        <path
           style="fill:#010101;fill-opacity:1;fill-rule:nonzero;stroke:#000000;stroke-width:0.206522;stroke-linecap:round;stroke-linejoin:miter;stroke-dasharray:none;stroke-opacity:1;paint-order:markers fill stroke"
           id="path38"
           sodipodi:type="arc"
           sodipodi:cx="203.58829"
           sodipodi:cy="254.53081"
           sodipodi:rx="17.344198"
           sodipodi:ry="19.067842"
           sodipodi:start="1.6801118"
           sodipodi:end="4.4843326"
           sodipodi:arc-type="slice"
           d="m 201.69607,273.48483 a 17.344198,19.067842 0 0 1 -15.42142,-17.82262 17.344198,19.067842 0 0 1 13.39238,-19.70553 l 3.92126,18.57413 z"
           transform="matrix(0.96983414,-0.24376576,0.25163758,0.96782154,0,0)" />
        <path
           id="path37"
           style="fill:#010101;fill-opacity:1;fill-rule:nonzero;stroke:#000000;stroke-width:0.364262;stroke-linecap:round;stroke-linejoin:miter;stroke-dasharray:none;stroke-opacity:1;paint-order:markers fill stroke"
           d="m 225.22419,144.61007 c -35.7061,-9.03468 -74.34257,19.58867 -99.0739,48.92149 -16.42571,19.48187 -28.048153,44.97845 -24.99296,75.19573 3.05519,30.21727 -28.43105,75.4051 -45.870571,22.31564 19.7838,31.19658 63.473441,6.59825 64.511701,-19.30783 1.03826,-25.90604 11.40469,-48.12193 28.85938,-63.46489 22.9238,-20.15042 57.27962,-31.00958 87.52285,-26.90006 10.8024,1.46784 1.87998,0.99166 27.56444,17.60168 2.60683,-19.91952 -16.9907,-48.914 -38.52094,-54.36176 z"
           sodipodi:nodetypes="aascsaaca" />
        <path
           id="path27"
           style="opacity:0.872263;fill:#000000;fill-opacity:1;stroke:#000000;stroke-width:0.421768;stroke-linecap:round;paint-order:markers fill stroke"
           d="m 53.59559,254.89401 c -2.452268,-0.29165 -5.312728,8.04825 -5.312728,8.04825 3.839867,-7.37429 4.503995,-3.63255 5.302787,1.05152 1.208044,-3.40373 2.076791,-6.13395 1.602154,-7.31025 -0.482259,-1.19519 -1.026304,-1.72221 -1.592213,-1.78952 z m -0.0099,9.09977 c -2.771685,7.80939 -7.352627,19.21324 -1.759693,23.87631 2.397732,1.9991 7.271635,-0.0485 8.978944,-2.6621 1.423336,-2.17884 2.430703,-6.83255 2.51068,-11.08279 -0.561364,-2.01703 -1.127883,-4.03274 -1.742104,-6.03465 -0.235379,-0.68889 -0.451608,-1.38493 -0.705866,-2.06712 -0.659563,-1.76961 -1.450993,-3.51206 -2.430379,-5.13071 -0.02118,0.61746 -0.504927,13.85912 -3.054418,9.7047 -0.941048,-1.53346 -1.385313,-4.18856 -1.797164,-6.60364 z" />
        <path
           id="path40"
           style="fill:#010101;fill-opacity:1;fill-rule:nonzero;stroke:#000000;stroke-width:0.299306;stroke-linecap:round;stroke-linejoin:miter;stroke-dasharray:none;stroke-opacity:1;paint-order:markers fill stroke"
           d="m 254.16329,153.11727 c 0,0 1.32613,16.00004 -0.54002,22.48906 -1.86613,6.48901 -2.52439,23.52105 -2.52439,23.52105 l -1.53065,13.02142 1.93424,5.76399 2.21537,15.63264 5.85339,0.26665 4.88601,-4.85707 c 1.87447,-12.22984 2.29873,-8.92255 3.40237,-15.89773 0.91122,-5.75884 1.73178,-1.14426 4.92735,-9.60252 6.06143,-13.69077 8.78287,-28.89676 -1.90582,-46.77234 0.48227,13.99502 -0.0974,11.344 -2.44327,19.19418 -1.36072,4.55365 -7.31156,-17.78019 -14.27458,-22.75933 z m 13.0297,44.14717 c 0.11813,-0.002 0.22057,0.0198 0.33641,0.0636 0.13196,0.0544 0.23305,0.15681 0.32815,0.25994 0.0464,0.0503 0.0829,0.10786 0.11937,0.16536 0.009,0.0146 0.01,0.0267 0.017,0.0408 0.0483,0.0361 0.0914,0.0781 0.13333,0.12143 0.0948,0.0978 0.12582,0.19564 0.11524,0.27337 6.8e-4,0.008 0.007,0.0179 0.007,0.0258 0.14447,0.22978 0.20058,0.50736 0.19843,0.78342 -0.088,0.75806 -0.36217,1.47484 -0.5674,2.20658 -0.10965,0.35026 -0.16906,0.55785 -0.29663,0.89762 -0.0486,0.12964 -0.0892,0.26415 -0.15606,0.38551 -0.0763,0.13867 -0.12836,0.32089 -0.27078,0.39015 -0.18688,0.0909 -0.42072,0.0972 -0.62167,0.0444 -0.11203,-0.0295 -0.14881,-0.17837 -0.22324,-0.26716 -0.21922,-0.66425 -0.27179,-1.3706 -0.38396,-2.05776 -0.0884,-0.74123 -0.19411,-1.47962 -0.31368,-2.2164 l 0.001,-5.2e-4 c -0.0109,-0.0674 -0.01,-0.12496 -0.009,-0.18293 -0.0856,-0.0831 -0.071,-0.25215 0.10955,-0.37827 0.0392,-0.0496 0.0837,-0.0904 0.13539,-0.11317 0.009,-0.016 0.0176,-0.0325 0.0279,-0.0486 0.0965,-0.14769 0.22978,-0.18486 0.37465,-0.24598 0.17779,-0.0618 0.36277,-0.087 0.54932,-0.10025 0.0278,-9.7e-4 0.0548,-0.003 0.0811,-0.003 0.0211,-1e-5 0.0328,0.009 0.0527,0.0103 0.0511,-0.0269 0.119,-0.0462 0.20464,-0.0522 0.0176,-0.001 0.0348,-0.002 0.0517,-0.002 z" />
      </g>
    </g>
  </g>
</svg>
